<svg width="139" height="139" viewBox="0 0 139 139" fill="#374151" xmlns="http://www.w3.org/2000/svg">
<rect width="139" height="139" rx="12" fill="#d1d5db"/>
<path d="M48.9545 41.6364H62.9659V77.5341C62.9489 80.9432 62.0881 83.9432 60.3835 86.5341C58.696 89.108 56.3608 91.1193 53.3778 92.5682C50.4119 94 46.9943 94.7159 43.125 94.7159C39.767 94.7159 36.6989 94.1364 33.9205 92.9773C31.142 91.8011 28.9261 89.9602 27.2727 87.4545C25.6193 84.9318 24.8011 81.6591 24.8182 77.6364H39.0341C39.0852 78.9489 39.3068 80.0568 39.6989 80.9602C40.108 81.8636 40.6705 82.5455 41.3864 83.0057C42.1193 83.4489 43.0057 83.6705 44.0455 83.6705C45.1023 83.6705 45.9886 83.4403 46.7045 82.9801C47.4375 82.5199 47.9915 81.8381 48.3665 80.9347C48.7415 80.0142 48.9375 78.8807 48.9545 77.5341V41.6364ZM69.7031 94V41.6364H92.3054C96.1918 41.6364 99.5923 42.3437 102.507 43.7585C105.422 45.1733 107.689 47.2102 109.308 49.8693C110.928 52.5284 111.737 55.7159 111.737 59.4318C111.737 63.1818 110.902 66.3437 109.232 68.9176C107.578 71.4915 105.251 73.4347 102.251 74.7472C99.2685 76.0597 95.7827 76.7159 91.794 76.7159H78.294V65.6705H88.9304C90.6009 65.6705 92.0241 65.4659 93.2003 65.0568C94.3935 64.6307 95.3054 63.9574 95.9361 63.0369C96.5838 62.1165 96.9077 60.9148 96.9077 59.4318C96.9077 57.9318 96.5838 56.7131 95.9361 55.7756C95.3054 54.821 94.3935 54.1222 93.2003 53.679C92.0241 53.2187 90.6009 52.9886 88.9304 52.9886H83.919V94H69.7031ZM100.385 69.9659L113.476 94H98.0327L85.2486 69.9659H100.385Z" fill="white"/>
<circle cx="30.5" cy="71.5" r="8.5" stroke="white" stroke-width="6"/>
<circle cx="107.5" cy="100.5" r="8.5" stroke="white" stroke-width="6"/>
</svg>
