<?xml version="1.0" encoding="UTF-8"?><svg id="a" xmlns="http://www.w3.org/2000/svg" viewBox="0 0 512 512"><circle cx="256" cy="256" r="256" style="fill:#d1d5db;"/><path d="M193.976666,162h29.023334c2.761424,0,5,2.238576,5,5v124.316941c0,11.95374-2.689508,22.339331-8.069014,31.152879-5.379506,8.815494-12.841275,15.607569-22.383348,20.376224-9.543542,4.767682-20.637519,7.153956-33.27948,7.153956-11.245788,0-21.442119-1.978671-30.589483-5.932121-9.148833-3.953451-16.397087-9.990634-21.745251-18.111551-5.349634-8.118971-7.993598-18.338213-7.932384-30.654807h39.296594c.121449,4.891228,1.140054,9.072313,3.054345,12.543256,1.914781,3.471916,4.559235,6.128627,7.932384,7.96916,3.373638,1.842479,7.369703,2.761773,11.989663,2.761773,4.862368,0,8.980861-1.041867,12.3545-3.123654,3.373638-2.083733,5.940718-5.147074,7.704177-9.19294,1.76248-4.042948,2.643965-9.023673,2.643965-14.942175v-124.316941c0-2.761424,2.238576-5,5-5Z" style="fill:#fff; stroke:#fff; stroke-miterlimit:10; stroke-width:10px;"/><path d="M264,345v-178c0-2.761424,2.238576-5,5-5h69.046268c14.172726,0,26.285057,2.524416,36.335023,7.573249,10.048982,5.048833,17.716646,12.17883,23.002009,21.388513,5.283394,9.211162,7.926567,20.027695,7.926567,32.450092,0,12.484521-2.688457,23.210333-8.064387,32.17497-5.37593,8.966116-13.149912,15.834797-23.321946,20.608508-10.172034,4.773218-22.468452,7.160073-36.885315,7.160073h-49.578454v-31.945208h43.162975c7.575129,0,13.86854-1.039843,18.878264-3.121007,5.00874-2.080178,8.751513-5.201185,11.226351-9.363514,2.473853-4.16085,3.711272-9.331959,3.711272-15.513821,0-6.242014-1.237419-11.504831-3.711272-15.788943-2.474837-4.283126-6.232377-7.541694-11.272618-9.776197-5.040242-2.233517-11.378936-3.350768-19.015099-3.350768h-26.758564v150.504055c0,2.761424-2.238576,5-5,5h-29.681074c-2.761424,0-5-2.238576-5-5ZM365.355124,264.445455l46.644876,85.554545h-43.803834l-45.637812-85.554545h42.79677Z" style="fill:#fff; stroke:#fff; stroke-miterlimit:10; stroke-width:10px;"/><path d="M109,162c0,78.280992.3,128,.3,128" style="fill:#2563eb; stroke:#fff; stroke-miterlimit:10; stroke-width:18px;"/><circle cx="109.3" cy="290" r="30" style="fill:#2563eb; stroke:#fff; stroke-miterlimit:10; stroke-width:18px;"/><circle cx="396" cy="363" r="30" style="fill:#2563eb; stroke:#fff; stroke-miterlimit:10; stroke-width:18px;"/><circle cx="109" cy="162" r="30" style="fill:#2563eb; stroke:#fff; stroke-miterlimit:10; stroke-width:18px;"/></svg>